<svg width="665" height="962" viewBox="0 0 665 962" fill="none" xmlns="http://www.w3.org/2000/svg">
<path fill-rule="evenodd" clip-rule="evenodd" d="M58.5104 343.552L21.7453 378.859C-6.4389 405.926 -7.34473 450.716 19.722 478.9C21.1928 480.714 22.7586 482.478 24.4195 484.184L52.7699 513.312L205.614 672.466C205.899 672.763 206.37 672.772 206.667 672.488C206.962 672.204 207.43 672.212 207.715 672.505L468.226 940.159C495.576 968.258 540.527 968.866 568.626 941.516L710.421 803.505C738.521 776.155 739.128 731.205 711.779 703.105L502.194 487.775C474.715 459.542 475.478 414.334 503.894 387.044L720.604 178.926C748.886 151.765 749.795 106.819 722.634 78.5372L585.576 -64.1791C558.415 -92.4613 513.47 -93.3703 485.187 -66.2094L215.805 192.493C215.515 192.771 215.055 192.764 214.775 192.476C214.494 192.187 214.032 192.181 213.742 192.462L58.5104 343.552Z" fill="#FFCE46"/>
</svg>
